<?xml version="1.0" encoding="UTF-8"?>
<svg width="24px" height="24px" viewBox="0 0 24 24" version="1.1" xmlns="http://www.w3.org/2000/svg" xmlns:xlink="http://www.w3.org/1999/xlink">
    <title>Combined Shape</title>
    <g id="Design" stroke="none" stroke-width="1" fill="none" fill-rule="evenodd" opacity="0.600000024">
        <g id="Wallet-Action" transform="translate(-762.000000, -454.000000)" fill="#126c5c" fill-rule="nonzero">
            <path d="M783.514286,454 C784.885714,454 786,455.118063 786,456.49414 L786,459.590314 L772.114286,459.590314 C771.428571,459.590314 770.914286,460.106343 770.914286,460.794382 L770.914286,471.200967 C770.914286,471.889005 771.428571,472.405034 772.114286,472.405034 L786,472.405034 L786,475.501208 C786,476.877286 784.885714,477.995349 783.514286,477.995349 L764.485714,477.995349 C763.114286,478.081353 762,476.963291 762,475.587213 L762,456.49414 C762,455.118063 763.114286,454 764.485714,454 L783.514286,454 Z M785.914286,461.740435 L785.914286,470.340918 L773.057143,470.340918 L773.057143,461.740435 L785.914286,461.740435 Z M778.285714,464.32058 L778.138354,464.326925 C777.263791,464.402535 776.571429,465.144416 776.571429,466.040677 C776.571429,466.98673 777.342857,467.760773 778.285714,467.760773 L778.285714,467.760773 C779.228571,467.760773 780,466.98673 780,466.040677 C780,465.094624 779.228571,464.32058 778.285714,464.32058 Z" id="Combined-Shape"></path>
        </g>
    </g>
</svg>