<?xml version="1.0" encoding="UTF-8"?>
<svg width="24px" height="23px" viewBox="0 0 24 23" version="1.1" xmlns="http://www.w3.org/2000/svg" xmlns:xlink="http://www.w3.org/1999/xlink">
    <title>Combined Shape</title>
    <g id="Design" stroke="none" stroke-width="1" fill="none" fill-rule="evenodd" opacity="0.600000024">
        <g id="Wallet-Action" transform="translate(-762.000000, -643.000000)" fill="#126c5c" fill-rule="nonzero">
            <g id="Group-37" transform="translate(0.000000, -0.500000)">
                <g id="Group-30" transform="translate(623.000000, 280.000000)">
                    <g id="Group-4" transform="translate(99.000000, 150.000000)">
                        <g id="Group-29-Copy-2" transform="translate(0.000000, 188.000000)">
                            <path d="M41.4187593,38.5217467 C41.639026,38.5759752 41.8239764,38.7208652 41.9254088,38.9187993 C42.1185324,39.412973 42.3464557,39.8937415 42.6074147,40.3575473 C43.5458854,41.9374629 44.9021471,43.2435028 46.5348279,44.1394883 C48.1675087,45.0354737 50.0171914,45.4886073 51.8908369,45.4516452 C55.262027,45.3530187 58.6293865,43.2728296 60.0947728,40.41837 C60.3567963,39.9086218 60.5657452,39.3744925 60.7183414,38.8240512 L61.2756335,38.8240512 L63.2165039,38.7253293 C63.0254648,39.8819153 62.6507045,41.0024069 62.1057501,42.046805 C60.0908217,45.9149911 55.8388856,48.5 51.5830298,48.5 L50.951796,48.5 C48.1859129,48.3361301 45.574853,47.2020727 43.6012583,45.307458 C41.8954864,43.6929662 40.7880731,41.5728043 40.4522814,39.2794147 C40.4503675,39.2477248 40.4503675,39.2162059 40.4522814,39.1845148 C40.4742038,38.9643816 40.5937335,38.7644128 40.7793787,38.6371537 C40.965024,38.5098858 41.1985148,38.4676917 41.4187593,38.5217467 Z M52.0437356,35.1991386 C52.5568435,35.2337096 53.0321364,35.4740079 53.3561249,35.8629392 L61.3493836,36.1589923 L63.087492,36.223559 L63.2319016,36.223559 C63.4399909,36.2266093 63.6383347,36.3104938 63.7823791,36.4565724 C63.926615,36.6028203 64.0049085,36.7990581 63.9996883,37.001721 C64.0011913,37.2035596 63.9197646,37.3974287 63.7739654,37.5408046 C63.6321659,37.6856946 63.4374744,37.7702607 63.2321733,37.7761912 L63.0489644,37.7761912 L61.2366959,37.8444844 L53.3561249,38.1405375 C53.0321632,38.5294558 52.5568435,38.7697619 52.0437356,38.8043381 C51.5308059,38.838909 51.0260717,38.6645282 50.6501043,38.3227019 C50.2742929,37.9810622 50.060832,37.5026798 50.060832,37.0017384 C50.060832,36.5007969 50.2743152,36.0224145 50.6501043,35.6807748 C51.0260895,35.3389658 51.5308059,35.1646059 52.0437356,35.1991386 Z M40.8188765,35.0236957 L40.9432609,35.0313773 L41.4382408,35.1035706 C41.6317252,35.1344115 41.8062354,35.2352418 41.9268068,35.3857282 C42.0475524,35.5362275 42.1054899,35.725689 42.0891351,35.9159964 C42.0618201,36.1779853 42.0385058,36.4247294 42.0385058,36.6751958 C42.0306755,36.8673644 41.9482041,37.0493684 41.8079724,37.1847705 C41.6675537,37.3200034 41.4798239,37.398296 41.2823486,37.4038884 L41.2823486,37.4038884 L40.7797036,37.4038884 L40.7678867,37.396444 C40.5629286,37.3945785 40.3668475,37.3140817 40.2222642,37.1724107 C40.0748971,37.0256336 39.9948625,36.8271919 40.000256,36.6219695 C40.007908,36.3220206 40.0273963,36.0069702 40.0625415,35.6995639 C40.0846381,35.4941852 40.1914644,35.30642 40.3586654,35.1794906 C40.5251716,35.0556105 40.7360446,35.0022292 40.9432609,35.0313773 Z M55.0359652,25.9286978 C56.2925005,26.2821984 57.4783944,26.8406047 58.5435387,27.5799348 C59.8194046,28.492319 60.896174,29.643005 61.7111336,30.9646627 C62.5260932,32.2863204 63.0628522,33.7525297 63.2904414,35.2782169 L60.9793625,35.1908569 C60.6569641,32.7597268 59.3922467,30.540652 57.4444856,28.9884146 C55.6866903,27.6152614 53.5049128,26.859793 51.2515585,26.8436545 C50.7589839,26.8397569 50.2666319,26.8702604 49.7784222,26.9346587 C49.7486704,26.9383869 49.7185686,26.9383869 49.6888199,26.9346587 C49.3688579,26.9372006 49.0996812,26.7021528 49.0673447,26.3921999 C49.0349832,26.0820821 49.2502062,25.7990699 49.5640616,25.7388979 C50.1070563,25.6251872 50.6582464,25.5528247 51.2125989,25.5224914 C52.5016488,25.4416562 53.7952419,25.579093 55.0359652,25.9286978 Z M41.6641196,31.4026123 C41.8647038,31.3400803 42.0825342,31.3593987 42.2681794,31.4558257 L42.2681794,31.4558257 L42.7087131,31.6873121 C42.8858333,31.7815396 43.0185822,31.9391407 43.0787833,32.1267367 C43.1391536,32.3143501 43.1224509,32.5173687 43.0321537,32.693273 C42.9112304,32.9363036 42.7943113,33.1943793 42.6930526,33.4524724 C42.6359872,33.5919395 42.5378598,33.7117542 42.4108478,33.7969928 C42.2840094,33.8820622 42.1340323,33.928665 41.9798817,33.9307052 C41.896368,33.9310375 41.8135492,33.9181584 41.7343872,33.8927387 L41.7343872,33.8927387 L41.2589087,33.7371809 C41.0565785,33.6670222 40.8930298,33.518744 40.8067324,33.3272479 C40.7164334,33.1438687 40.708082,32.9322082 40.783418,32.7425776 C40.9119934,32.4198961 41.0562293,32.0972451 41.2121215,31.782212 C41.3051846,31.6022427 41.4676866,31.4656519 41.6641196,31.4026123 Z M44.2013045,28.2787714 C44.4116565,28.2865629 44.6098266,28.3768903 44.7507575,28.5292378 L44.7507575,28.5292378 L45.0860284,28.9088375 C45.2154723,29.0530506 45.2841989,29.2396272 45.2784572,29.4311233 C45.2727159,29.6226281 45.1926853,29.8048056 45.0547118,29.9413921 C44.8598467,30.1349185 44.6571512,30.3399717 44.4701163,30.5487516 C44.3413627,30.6953378 44.1602428,30.7887107 43.9632886,30.8098945 C43.7663345,30.8310783 43.5685118,30.7783769 43.4101833,30.6626315 L43.4101833,30.6626315 L43.0204395,30.3589517 C42.8455864,30.225055 42.7377131,30.0247478 42.724142,29.8085105 C42.7050029,29.6066892 42.7695511,29.4057053 42.9035204,29.2504772 L42.9035204,29.2504772 L43.1411151,28.9929465 C43.3022393,28.8220014 43.4685698,28.6532866 43.6400037,28.4912778 C43.7872148,28.3453727 43.9916518,28.2679257 44.2013045,28.2787714 Z M46.9765178,26.270433 C47.1680558,26.1841749 47.387454,26.1773985 47.5844081,26.251453 C47.781536,26.3312687 47.9365551,26.4863276 48.0131115,26.6803659 L48.0131115,26.6803659 L48.2079767,27.1321547 C48.2754838,27.3078855 48.2737423,27.5015854 48.203279,27.6761319 C48.1326376,27.8506783 47.9983209,27.993538 47.8260735,28.077423 C47.5960657,28.1836762 47.3662495,28.3012827 47.1440676,28.4227893 C46.9713034,28.5148095 46.7691336,28.5397191 46.5782681,28.4926096 C46.387425,28.4453267 46.221961,28.3295813 46.1151348,28.1684228 L46.1151348,28.1684228 L45.8501302,27.7509022 C45.7401688,27.5773579 45.7064154,27.3680705 45.7565236,27.1701363 C45.8085471,26.9715037 45.9406011,26.8017034 46.1229414,26.6993459 C46.3997614,26.547506 46.688046,26.4032929 46.9765178,26.270433 Z" id="Combined-Shape"></path>
                        </g>
                    </g>
                </g>
            </g>
        </g>
    </g>
</svg>