<?xml version="1.0" encoding="UTF-8"?>
<svg width="24px" height="25px" viewBox="0 0 24 25" version="1.1" xmlns="http://www.w3.org/2000/svg" xmlns:xlink="http://www.w3.org/1999/xlink">
    <title>Shape</title>
    <g id="Design" stroke="none" stroke-width="1" fill="none" fill-rule="evenodd" opacity="0.600000024">
        <g id="Wallet-Action" transform="translate(-762.000000, -548.000000)" fill="#126c5c" fill-rule="nonzero">
            <g id="Group-37" transform="translate(0.000000, -0.500000)">
                <g id="Group-30" transform="translate(623.000000, 280.000000)">
                    <g id="Group-4" transform="translate(99.000000, 150.000000)">
                        <g id="Group-29-Copy" transform="translate(0.000000, 94.000000)">
                            <path d="M40.8571806,36.1429026 L40.8571806,30.1428781 C40.9256736,28.3684872 42.5714636,28.3514912 43.9342695,28.4285854 C42.8027448,27.6913906 43.8313342,26.0886738 44.8943659,26.9628162 L46.6086488,28.6771089 C46.7708934,28.8380173 46.862157,29.0570843 46.862157,29.2857318 C46.862157,29.5143792 46.7708934,29.7334365 46.6086488,29.8943547 C46.2143245,30.1428879 44.8428884,31.9601264 44.2857465,31.8571708 C44.0201845,31.8384209 43.7762616,31.704109 43.6184006,31.4896314 C43.4603633,31.2753448 43.4044973,31.0025127 43.4653396,30.7432773 C43.526182,30.4842183 43.6976103,30.2645782 43.9342793,30.142883 L42.5714734,30.142883 L42.5714734,36.1429075 C42.5714734,36.4492222 42.4080826,36.7321834 42.1429026,36.8852452 C41.8777226,37.0383071 41.5509362,37.0383071 41.2857612,36.8852452 C41.0205861,36.7321834 40.8571806,36.4492124 40.8571806,36.1429075 L40.8571806,36.1429026 Z M61.4285756,37.8571953 L61.4285756,43.8572198 L60.0657697,43.8572198 C61.1972944,43.1114045 60.168705,41.5173082 59.1056733,42.3914506 L57.3913904,44.1057433 C57.2291457,44.2666517 57.1378822,44.4857187 57.1378822,44.7143662 C57.1378822,44.9430136 57.2291457,45.1620709 57.3913904,45.3229891 C57.777104,45.5715223 59.1657712,47.3971853 59.7142927,47.2858052 C59.9798547,47.2670553 60.2237776,47.1327434 60.3816386,46.9182658 C60.5396759,46.7039792 60.5955419,46.4311471 60.5346995,46.1719117 C60.4738572,45.9128527 60.3024289,45.6932126 60.0657599,45.5715174 C61.4199454,45.6486214 63.0743754,45.631596 63.1428487,43.8572247 L63.1428487,37.8572002 C63.1428487,37.5508855 62.979458,37.2679244 62.714278,37.1148625 C62.449098,36.9618007 62.1223116,36.9618007 61.8571366,37.1148625 C61.5919615,37.2679244 61.4285658,37.5508953 61.4285658,37.8572002 L61.4285756,37.8571953 Z M64,26.7142927 L64,33.5714636 C64,34.0260548 63.819388,34.4621121 63.49796,34.7837134 C63.1763409,35.1051433 62.7402959,35.2857563 62.2857171,35.2857563 L49.9771658,35.2857563 C49.5225771,35.2857563 49.0865223,35.1051433 48.7651188,34.7837134 C48.4434997,34.4620925 48.2628828,34.026045 48.2628828,33.5714636 L48.2628828,26.7142927 C48.2628828,26.2597015 48.4434948,25.8236442 48.7651188,25.5020429 C49.0865468,25.180613 49.5225869,25 49.9771658,25 L62.2857171,25 C62.7403057,25 63.1763605,25.180613 63.49796,25.5020429 C63.819388,25.8236638 64,26.2597113 64,26.7142927 Z M56.1314414,27.7256275 C55.2677857,27.7256275 54.4697625,28.1863412 54.038155,28.9342528 C53.6063321,29.6821742 53.6063321,30.6035821 54.038155,31.3515035 C54.469787,32.0994249 55.2677857,32.5601288 56.1314414,32.5601288 C56.9949012,32.5601288 57.7929244,32.0994151 58.2247278,31.3515035 C58.6563597,30.6035821 58.6563597,29.6821742 58.2247278,28.9342528 C57.7929048,28.1863314 56.9949012,27.7256275 56.1314414,27.7256275 Z M55.7371172,40.4285364 L55.7371172,47.2857073 C55.7371172,47.7402985 55.5565052,48.1763558 55.2348812,48.4979571 C54.9134532,48.819387 54.4774131,49 54.0228342,49 L41.7142829,49 C41.2596943,49 40.8236395,48.819387 40.50204,48.4979571 C40.180612,48.1763362 40,47.7402887 40,47.2857073 L40,40.4285364 C40,39.9739452 40.180612,39.5378879 40.50204,39.2162866 C40.8236591,38.8948567 41.2597041,38.7142437 41.7142829,38.7142437 L54.0228342,38.7142437 C54.4774229,38.7142437 54.9134777,38.8948567 55.2348812,39.2162866 C55.5565003,39.5379075 55.7371172,39.973955 55.7371172,40.4285364 Z M47.8685586,41.4398712 L47.8683673,41.4398712 C47.0049075,41.4398712 46.2068843,41.9005849 45.7750809,42.6484965 C45.3434489,43.3964179 45.3434489,44.3178258 45.7750809,45.0657472 C46.2069039,45.8136686 47.0049075,46.2743725 47.8683673,46.2743725 C48.732023,46.2743725 49.5300462,45.8136588 49.9616536,45.0657472 C50.3934766,44.3178258 50.3934766,43.3964179 49.9616536,42.6484965 C49.5300217,41.9005751 48.732023,41.4398712 47.8683673,41.4398712 L47.8685586,41.4398712 Z" id="Shape"></path>
                        </g>
                    </g>
                </g>
            </g>
        </g>
    </g>
</svg>